<?xml version="1.0" encoding="UTF-8" standalone="no"?>
<!-- Created with Inkscape (http://www.inkscape.org/) -->

<svg
   width="210mm"
   height="297mm"
   viewBox="0 0 210 297"
   version="1.1"
   id="svg1"
   xml:space="preserve"
   sodipodi:docname="logo.svg"
   inkscape:version="1.4.2 (ebf0e940d0, 2025-05-08)"
   inkscape:export-filename="logo.png"
   inkscape:export-xdpi="90"
   inkscape:export-ydpi="90"
   xmlns:inkscape="http://www.inkscape.org/namespaces/inkscape"
   xmlns:sodipodi="http://sodipodi.sourceforge.net/DTD/sodipodi-0.dtd"
   xmlns="http://www.w3.org/2000/svg"
   xmlns:svg="http://www.w3.org/2000/svg"><sodipodi:namedview
     id="namedview1"
     pagecolor="#ffffff"
     bordercolor="#000000"
     borderopacity="0.25"
     inkscape:showpageshadow="2"
     inkscape:pageopacity="0.0"
     inkscape:pagecheckerboard="0"
     inkscape:deskcolor="#d1d1d1"
     inkscape:document-units="mm"
     inkscape:zoom="0.65566779"
     inkscape:cx="138.7898"
     inkscape:cy="412.55649"
     inkscape:window-width="2860"
     inkscape:window-height="1568"
     inkscape:window-x="0"
     inkscape:window-y="0"
     inkscape:window-maximized="1"
     inkscape:current-layer="layer1" /><defs
     id="defs1" /><g
     inkscape:label="Layer 1"
     inkscape:groupmode="layer"
     id="layer1"><path
       style="fill:#4c8c4a;fill-opacity:1;fill-rule:nonzero;stroke:none;stroke-width:0.603071;stroke-dasharray:none;stroke-opacity:1"
       d="m 142.36126,84.147983 c 0.53838,-0.561038 1.08373,-0.680695 4.15339,-0.911325 4.15526,-0.31219 6.5586,-0.731362 7.48931,-1.306216 0.79653,-0.491967 0.8439,-0.895763 0.18771,-1.599701 -0.7533,-0.808113 -0.31614,-1.296368 1.73743,-1.940448 3.76028,-1.179391 9.79263,-4.291257 9.79263,-5.051666 0,-0.133013 -0.40218,-0.46402 -0.89375,-0.735572 -0.49154,-0.27155 -0.89458,-0.715554 -0.8956,-0.986674 -9.7e-4,-0.285434 1.16061,-1.33546 2.75961,-2.494327 2.94476,-2.134175 5.89621,-4.759662 5.89621,-5.245003 0,-0.162001 -0.57096,-0.452189 -1.2688,-0.644871 -0.69784,-0.192678 -1.38258,-0.445322 -1.52165,-0.561426 -0.13907,-0.116105 0.85608,-1.235338 2.21141,-2.487186 2.87793,-2.658156 4.32416,-4.63497 3.82128,-5.223235 -0.18146,-0.212262 -0.78368,-0.385934 -1.33828,-0.385934 -1.61637,0 -1.34832,-0.987127 0.95204,-3.505541 2.39271,-2.619546 3.52402,-4.394449 3.27887,-5.144278 -0.10102,-0.309043 -0.76848,-0.770204 -1.51571,-1.047254 -1.6638,-0.616874 -1.74006,-1.289606 -0.34994,-3.086379 1.26267,-1.632013 2.2987,-3.373589 2.2987,-3.864132 0,-0.507691 -1.94946,-0.961795 -5.72578,-1.333756 -4.21958,-0.415622 -8.07023,1.575703 -7.00332,0.539906 0.24631,-0.239112 3.4743,-2.876545 3.4743,-2.963375 0,-0.08683 -3.45595,0.378901 -5.8663,0.619429 l -4.75658,0.474657 1.72,-2.224453 c -0.18601,-1.574015 -2.13975,-1.552993 -7.38918,0.07951 -3.1688,0.985446 -3.79032,0.900498 -3.1647,-0.432526 0.19259,-0.410344 0.35014,-0.98684 0.35014,-1.2811 0,-1.268484 -1.56474,-1.190629 -6.68164,1.10227 -1.94103,0.869776 -3.73684,1.771781 -4.01249,1.7211 -0.34135,-0.06276 -0.53074,-0.437954 -0.59384,-1.17661 -0.0636,-0.742735 -0.13008,-1.708649 -0.44399,-1.708649 -0.25207,0 -2.09653,0.816567 -4.33857,1.792796 -2.24203,0.976233 -4.90293,2.450061 -5.54255,2.534085 -1.12577,0.147889 0.76794,-0.834821 0.0762,-1.239811 -0.37171,-0.217623 -1.03367,-0.149221 -1.15196,-0.144218 -2.10839,0.08917 -3.1422,1.58169 -6.00575,4.308298 -3.31053,3.152214 -1.88481,1.179124 -3.23722,1.505219 l -1.73315,0.417901 -1.06366,1.090694 c -1.49807,1.536159 -4.21611,5.578523 -5.27416,7.843938 -1.81592,3.888115 -2.48402,6.677427 -2.51294,10.491375 -0.0242,3.197595 0.0366,3.604144 0.73764,4.92717 0.88747,1.674962 2.70128,3.459608 4.09204,3.459608 1.11878,0 2.09555,-1.619688 6.10944,-5.108399 8.77487,-7.626715 14.58316,-10.027392 27.53519,-15.592794 1.92107,-0.825472 5.31623,-1.29457 7.57418,-2.15822 -1.01979,0.79259 -2.33668,1.395054 -4.62472,2.560616 -10.13336,5.162106 -15.96896,9.987457 -21.65581,14.409022 -6.16335,4.792047 -9.19614,9.123616 -9.19614,11.822253 0,3.881571 5.35222,8.040057 12.53875,9.742159 1.06729,0.252782 3.83312,0.533701 6.1463,0.624261 4.07335,0.159476 4.22527,0.144321 4.82554,-0.481175 z"
       id="path15775-2"
       sodipodi:nodetypes="csssssscssssssssssssssssccssssscssssssscssccscscssssscc" /><path
       style="fill:#000000;fill-opacity:1;stroke:none;stroke-width:1.33356;stroke-opacity:1"
       d="m 94.655961,233.96402 c -7.345698,-1.35491 -9.345999,-1.97454 -13.906903,-4.3078 -3.549162,-1.81568 -7.604739,-4.71012 -10.347833,-7.38515 -1.554964,-1.51639 -2.173293,-1.86879 -3.881201,-2.21201 -6.717753,-1.34995 -11.521334,-3.57791 -15.96859,-7.40644 -1.067323,-0.91883 -2.972639,-2.1892 -4.23402,-2.82305 -11.448695,-5.75293 -18.942481,-16.07737 -20.439782,-28.1605 -0.19998,-1.61381 -0.680313,-3.95962 -1.067417,-5.21289 -0.38709,-1.25326 -0.888546,-3.34656 -1.114344,-4.65176 -0.397492,-2.29768 -0.502684,-2.47011 -3.309962,-5.42518 -12.5278812,-13.18745 -9.3613,-39.93561 5.758753,-48.64422 2.124499,-1.22365 2.13506,-1.23778 2.366699,-3.16972 1.381069,-11.51852 5.36262,-18.67468 14.175452,-25.477932 4.236274,-3.270278 4.073927,-2.948881 1.954617,-3.86957 -2.39697,-1.041314 -3.334419,-1.969231 -2.868662,-2.839497 0.202274,-0.377963 0.315225,-0.724737 0.250989,-0.77061 -0.06428,-0.04587 -0.910685,-0.531334 -1.880979,-1.078801 -5.353071,-3.020335 -9.009984,-6.458628 -8.193942,-7.704071 0.542971,-0.828675 0.500323,-0.900856 -1.99845,-3.382955 -3.496673,-3.473342 -5.037901,-6.030576 -4.466299,-7.410564 0.388291,-0.937401 0.318132,-1.157405 -0.862237,-2.703763 -2.598083,-3.403679 -3.199116,-5.061456 -2.198003,-6.062571 0.866797,-0.866799 0.866797,-0.866799 -0.321627,-2.840367 -2.656199,-4.411071 -3.195569,-7.152883 -1.541855,-7.837874 0.58219,-0.241147 1.058508,-0.481237 1.058508,-0.533531 0,-0.05229 -0.314065,-0.787218 -0.697915,-1.633164 -2.193563,-4.834183 -0.558852,-7.270127 5.528475,-8.238197 1.158138,-0.184179 1.502275,-0.401194 1.587769,-1.00126 0.131089,-0.920281 1.300056,-1.351929 5.682248,-2.098259 1.881057,-0.320361 3.381372,-0.780197 3.809403,-1.16756 0.574735,-0.520134 1.488659,-0.66695 4.911386,-0.788981 4.029159,-0.143654 4.229659,-0.187185 4.788112,-1.039485 0.711411,-1.085745 5.172136,-0.973632 9.497718,0.238708 2.469862,0.69223 2.469862,0.69223 3.260246,-0.0493 0.978109,-0.917663 5.491122,0.0048 9.00597,1.8408 2.392822,1.249912 2.927298,1.305428 3.434995,0.356789 0.675979,-1.263078 3.930051,0.122059 8.672622,3.691603 2.312306,1.740375 2.592068,1.862049 3.239224,1.408764 0.921632,-0.645536 2.36732,0.372223 6.100941,4.295042 5.153662,5.414839 7.885346,10.814514 9.488433,18.755624 0.76688,3.798879 1.85888,4.571838 2.3003,1.628241 1.19484,-7.967716 5.30199,-15.886525 11.10275,-21.406697 3.17858,-3.024838 4.77439,-3.958458 5.30328,-3.102678 0.18347,0.296867 0.99228,-0.126207 2.67245,-1.397928 4.3913,-3.323766 8.07666,-4.891175 9.1436,-3.88884 0.888,0.834233 0.888,0.834233 3.10191,-0.289492 4.21404,-2.138934 8.30884,-2.767928 9.38518,-1.441639 0.56826,0.700243 0.63332,0.704165 2.17357,0.130994 2.71369,-1.009848 9.69501,-1.138522 10.28761,-0.189613 0.25697,0.411461 0.66718,0.74811 0.91159,0.74811 0.31911,0 0.44438,0.771896 0.44438,2.73816 v 2.73816 l -3.39924,0.625283 c -3.83813,0.706011 -3.92346,0.684882 -3.30119,-0.817377 0.96833,-2.337764 -1.89911,-2.127371 -7.38304,0.541718 -3.40402,1.656767 -3.7752,1.615306 -3.40089,-0.379878 0.31131,-1.659515 0.014,-1.607931 -5.21635,0.904985 -5.06778,2.434817 -4.9077,2.400876 -5.76601,1.222615 -0.76299,-1.047427 -3.2923,0.741235 -7.28048,5.148581 -2.05135,2.266953 -2.05135,2.266953 -2.71966,1.38803 -0.87636,-1.152531 -1.38881,-0.838494 -3.78041,2.316676 -6.40829,8.454253 -8.01099,20.149158 -3.16614,23.103217 2.01745,1.230109 2.76435,0.967984 6.155,-2.160096 9.33386,-8.611117 21.24568,-15.257631 33.76679,-18.841058 4.6738,-1.337605 4.41789,-0.972941 -1.59023,2.265912 -17.59728,9.486328 -30.61722,20.365994 -30.66236,25.621956 -0.0356,4.152749 5.03204,8.26995 12.1636,9.882188 3.69251,0.834768 10.22397,0.933556 10.22889,0.15471 0.002,-0.421067 0.7356,-0.573762 3.58551,-0.746995 1.9702,-0.119757 4.03428,-0.327025 4.58688,-0.460595 3.98577,-0.963418 4.3236,-1.24985 2.9453,-2.49719 -1.04286,-0.943776 -0.90462,-1.128074 1.32314,-1.763873 3.77429,-1.077184 9.61478,-4.207935 9.61478,-5.15394 0,-0.18652 -0.56369,-0.671705 -1.25262,-1.078191 -1.25262,-0.739065 -1.25262,-0.739065 1.32314,-2.399455 3.07309,-1.980982 6.81982,-5.424292 6.48745,-5.962082 -0.13016,-0.210649 -0.86512,-0.552209 -1.63316,-0.759023 -1.75602,-0.472847 -1.73612,-0.588787 0.37737,-2.198366 1.93904,-1.476719 4.67255,-4.740609 4.47548,-5.34384 -0.0706,-0.215927 -0.71161,-0.53968 -1.4246,-0.71945 -1.69556,-0.427515 -1.6636,-1.112314 0.13368,-2.865272 1.50771,-1.470519 3.27839,-4.049518 3.66283,-5.3349 0.2039,-0.681778 0.0135,-0.827179 -1.75698,-1.341875 -1.51159,-0.439432 -1.93622,-0.706014 -1.77866,-1.116615 0.11393,-0.296655 0.20697,-0.685163 0.20697,-0.863351 0,-0.678056 7.24701,-0.382752 7.88412,0.321267 1.07601,1.188959 0.7858,4.561604 -0.62548,7.269162 -1.15963,2.22479 -1.18142,2.335292 -0.52925,2.684324 1.2451,0.666354 0.56855,2.804343 -2.05346,6.489249 -1.01807,1.430771 -1.16718,1.85274 -0.83986,2.376855 0.91077,1.458377 -0.14932,3.328874 -4.31382,7.611598 -1.67542,1.722976 -2.04787,2.294325 -1.71358,2.628627 1.33311,1.333105 -0.88965,3.693837 -7.14516,7.588677 -2.45684,1.529689 -2.81074,1.878278 -2.82269,2.780322 -0.0121,0.892565 -0.28654,1.17379 -2.04146,2.089859 -2.46934,1.288985 -2.46584,1.170166 -0.0827,2.81154 7.88857,5.433064 12.70734,13.892385 14.2559,25.026185 0.47288,3.39987 0.27075,3.10686 3.20833,4.65052 15.7458,8.27418 19.38849,36.24306 6.40699,49.19333 -2.87134,2.86444 -3.019,3.08869 -3.28844,4.99383 -0.15516,1.09709 -0.75043,3.4043 -1.32281,5.12713 -0.57239,1.72283 -1.22155,4.45323 -1.44257,6.06752 -1.67599,12.24067 -8.30627,21.61335 -19.11823,27.02583 -1.79441,0.89828 -4.38075,2.47804 -5.74743,3.51057 -5.46007,4.12505 -12.93008,6.90622 -18.54962,6.90622 -1.17307,0 -1.58336,0.25144 -3.22476,1.97638 -4.5189,4.74887 -11.60311,8.88695 -18.11942,10.58408 -3.43141,0.8937 -13.590368,1.50538 -16.398603,0.98741 z m 12.878529,-7.5478 c 10.05342,-2.69056 17.83451,-9.70589 17.8085,-16.05591 -0.0451,-11.01537 -27.912284,-15.54653 -44.447642,-7.22713 -8.549015,4.30126 -9.865566,8.71092 -4.332651,14.51178 7.713225,8.0868 20.256299,11.63902 30.971793,8.77126 z m 39.92152,-19.44804 c 9.3887,-2.89504 16.92809,-10.48064 20.29984,-20.4243 3.99744,-11.78882 1.96016,-22.86907 -4.5365,-24.67309 -1.88619,-0.52377 -1.71568,-0.56319 -5.22931,1.20912 -4.22325,2.13028 -12.05831,4.02984 -16.70893,4.05098 -4.58462,0.0207 -11.37682,8.81152 -13.09356,16.9461 -3.34819,15.86507 6.00785,26.98018 19.26846,22.89119 z m -85.038226,-1.41879 c 10.873213,-4.0682 10.407483,-26.08622 -0.779129,-36.83476 -1.849493,-1.77707 -1.966339,-1.83063 -4.464392,-2.0465 -5.251522,-0.4538 -10.239707,-2.41364 -14.869046,-5.84199 -2.729546,-2.02142 -3.273996,-2.06341 -5.6797,-0.43811 -7.41332,5.00846 -7.302889,20.85598 0.22569,32.38861 6.441226,9.86697 17.956705,15.61996 25.566577,12.77275 z m 43.705356,-10.74561 c 12.58104,-2.53088 21.868,-15.60998 18.7314,-26.37998 -1.19616,-4.10723 -6.13473,-7.77787 -10.49699,-7.80199 -1.58619,-0.01 -2.06084,-0.13295 -2.06713,-0.54065 -0.0179,-1.1601 -1.38739,-3.4399 -3.02657,-5.0382 -4.72251,-4.6048 -9.500702,-4.62804 -15.62496,-0.076 -5.066177,3.76557 -11.737135,8.05636 -15.305126,9.8443 -4.382298,2.19602 -5.14045,3.2951 -5.45681,7.91063 -0.421896,6.15548 1.646794,10.48319 7.674324,16.05467 6.32233,5.84398 15.605814,8.03207 25.571862,6.02724 z m 71.24335,-33.39948 c 10.11309,-10.14379 7.9022,-30.21952 -4.0283,-36.57842 -2.61866,-1.39572 -2.55137,-1.44648 -1.83631,1.38508 1.61728,6.40437 0.58125,17.61923 -2.23295,24.17136 -1.72538,4.01713 -1.39762,6.698 1.26894,10.37907 2.45189,3.38473 3.95409,3.52617 6.82862,0.64291 z M 28.234555,161.22091 c 1.614987,-1.6235 2.87853,-4.16282 4.337145,-8.71632 1.106756,-3.45506 1.106756,-3.45506 0.361352,-6.42705 -1.667982,-6.65044 -1.694533,-14.8145 -0.06721,-20.68293 0.775795,-2.79776 0.306838,-2.90852 -3.597368,-0.84967 -10.477014,5.52495 -13.962377,22.79401 -6.86771,34.02764 2.55181,4.04048 3.858772,4.6338 5.833832,2.64833 z M 146.12252,160.7787 c 12.85556,-2.55926 20.71012,-12.14801 20.65854,-25.21965 -0.0723,-18.30318 -10.24683,-27.07208 -34.37163,-29.62293 -31.24217,-3.30342 -69.302291,-0.63167 -80.766095,5.66964 -18.435423,10.13338 -19.070129,38.15591 -1.060642,46.82768 12.188283,5.86879 23.322992,3.67824 38.47618,-7.5695 11.104547,-8.24255 14.142477,-8.31069 24.378287,-0.5469 8.05918,6.11283 10.89704,7.72276 16.85526,9.56199 6.85054,2.11469 9.0881,2.24186 15.8301,0.89967 z m -85.338833,-1.7943 c -15.536491,-1.71225 -24.170279,-15.10879 -19.755015,-30.65273 4.585159,-16.14209 19.370592,-21.13946 62.624618,-21.16668 25.85053,-0.0163 40.04404,1.81529 48.69139,6.28321 14.15733,7.31486 16.63022,29.72699 4.38824,39.7712 -10.81163,8.87065 -25.11312,7.74499 -39.54159,-3.11232 -12.531,-9.42949 -17.372256,-10.06176 -26.416564,-3.45006 -1.843567,1.34772 -4.780936,3.49022 -6.527482,4.76109 -7.688786,5.59484 -16.263205,8.35982 -23.463597,7.56629 z M 39.129704,113.56819 c 5.637546,-5.60518 14.172386,-9.72642 24.509482,-11.835 2.254813,-0.45995 2.254813,-0.45995 5.498524,-5.016467 4.931188,-6.926982 4.629418,-7.403836 -4.649237,-7.346514 -6.316245,0.03902 -9.136911,0.674948 -14.289871,3.2217 -8.62028,4.260408 -16.045547,16.220831 -14.24389,22.943691 0.2743,1.02356 -0.01062,1.20049 3.174992,-1.96741 z m 125.929006,-2.13314 c -3.36552,-12.758109 -13.07178,-21.150297 -25.46417,-22.016769 -3.98629,-0.278722 -10.47082,1.169806 -10.96156,2.448613 -0.40766,1.062388 6.69742,8.731116 8.39577,9.061766 0.46729,0.091 2.19924,0.36159 3.84875,0.60133 9.04397,1.3145 16.9134,4.75831 22.14721,9.69208 2.48685,2.34428 2.59935,2.35606 2.034,0.21298 z M 92.186118,99.243778 c 6.695067,-0.01477 17.396582,0.116064 23.781132,0.290732 l 11.60829,0.31759 -1.55246,-2.96386 c -4.92384,-9.400264 -13.90789,-14.355113 -25.36889,-13.991335 -12.213146,0.387653 -19.243517,4.336458 -24.487131,13.753851 -1.640792,2.946822 -1.520624,3.1779 1.489847,2.864884 1.296001,-0.134755 7.834133,-0.257093 14.529212,-0.271862 z M 71.192356,83.564646 C 78.190113,82.136641 83.726873,77.744062 83.706839,73.636303 83.677753,67.669269 68.18926,55.715512 46.017698,44.548445 c -2.780033,-1.400211 -2.086906,-1.40556 2.622941,-0.02024 14.139539,4.158891 25.883948,10.585634 35.315948,19.325507 4.062321,3.764226 5.264597,4.234567 7.343091,2.872691 C 95.823914,63.762 94.246545,52.06964 88.22597,43.942544 85.601926,40.40037 85.181829,40.078226 84.508702,41.092017 c -0.764125,1.150827 -0.968084,1.048349 -3.668323,-1.843033 -3.673021,-3.933039 -7.201378,-6.274906 -6.431571,-4.268812 0.45877,1.195543 -1.298989,0.849827 -5.189338,-1.020636 -5.028526,-2.41769 -5.82207,-2.560703 -5.674152,-1.022586 0.161626,1.680776 -0.306864,1.676395 -3.745647,-0.03502 -5.675645,-2.82466 -7.836856,-3.001463 -6.878898,-0.562746 0.749631,1.908363 0.729935,1.912788 -2.911802,0.654263 -4.587119,-1.585236 -7.084212,-1.588843 -6.926906,-0.01002 0.115352,1.158215 0.115352,1.158215 -4.094677,0.920283 -4.244049,-0.23985 -5.261431,-0.01241 -4.133271,0.923834 1.127533,0.93577 0.564907,1.300478 -2.353416,1.525523 -3.615558,0.278811 -7.000625,0.933475 -7.000625,1.353903 0,0.576817 1.317471,2.909432 2.434762,4.310798 1.448907,1.817296 1.385936,2.159567 -0.494161,2.685963 -2.371832,0.664071 -1.825209,2.445657 2.007466,6.542792 2.157156,2.306015 2.311622,2.959667 0.703809,2.978381 -2.55881,0.02977 -1.989195,1.5703 1.984316,5.366562 l 2.814865,2.689313 -1.550003,0.390295 c -0.852501,0.214662 -1.550003,0.557142 -1.550003,0.761063 0,0.687899 3.772798,4.150053 6.313364,5.79354 2.674283,1.729983 2.755737,1.964672 0.997445,2.873918 -1.112503,0.575299 -1.112503,0.575299 0.110549,1.608819 1.524772,1.288443 6.205159,3.570303 8.901805,4.339956 2.068597,0.590399 2.143768,0.733392 1.053961,2.004949 -1.146163,1.337312 1.740862,2.347177 7.585989,2.653534 3.491044,0.182973 3.969417,0.283653 3.969417,0.835415 0,0.96193 5.743964,0.974275 10.408669,0.02236 z M 180.57155,97.024577 c -6.91804,-0.125101 -6.88029,-0.114761 -6.88029,-1.883653 0,-1.417348 7.23304,-10.900259 8.1302,-10.659142 0.17185,0.04619 0.22181,-0.152282 0.11092,-0.441044 -0.11079,-0.288762 -0.46235,-0.532784 -0.78118,-0.542269 -3.04543,-0.0906 -6.30613,-0.462844 -6.66527,-0.7609 -0.5539,-0.459705 -0.58287,-3.32713 -0.0369,-3.664492 0.39918,-0.246707 14.45111,-0.224926 14.69883,0.02278 1.242,1.24201 0.49136,2.910323 -3.59157,7.982313 l -4.09105,5.082026 3.77423,0.100906 c 4.2469,0.113553 4.31607,0.155803 4.32403,2.642303 0.005,1.850741 -0.72672,2.461693 -2.75205,2.294891 -0.52103,-0.04292 -3.32898,-0.121087 -6.23987,-0.173729 z m 5.70992,-27.498963 c -0.13255,-0.132529 -0.24095,-1.160972 -0.24095,-2.285436 0,-2.285653 -0.70289,-1.209732 6.63744,-10.159964 1.97714,-2.410783 3.59481,-4.514568 3.59481,-4.675078 0,-0.160511 -1.89498,-0.291835 -4.21107,-0.291835 -5.65613,0 -6.02118,-0.157293 -6.02118,-2.594337 0,-2.796373 -0.26938,-2.724063 9.74669,-2.616258 l 8.77721,0.09447 0.0918,2.117017 c 0.10089,2.325568 -0.64496,3.435144 -7.91991,11.781651 -1.41934,1.628411 -2.58063,3.097092 -2.58063,3.263734 0,0.166644 2.37862,0.302987 5.28582,0.302987 6.03479,0 5.80819,-0.136932 5.58587,3.375326 l -0.11019,1.740798 -9.1974,0.09393 c -5.05859,0.05167 -9.30585,-0.01448 -9.43837,-0.147015 z"
       id="path15774"
       sodipodi:nodetypes="csssscssssssssssssssssssscscssssssssssssssssssssssscssssssssssssscssssssssssssssssscssssssssscscsssssssssssccssssssssssssssssssssscsssssssscsssscsssssccsssssssssscssssscsccssssccssssscsscsssssssssssssssssssscscssssssscsssscssssssssssssssscscsssscssssscssssscsssc" /><path
       style="fill:#4c8c4a;fill-opacity:1;stroke-width:2.21102365;fill-rule:nonzero;stroke:#000000;stroke-opacity:1;stroke-dasharray:none"
       d="m 230.51777,315.48676 c -1.94488,-2.08758 -3.91487,-2.53282 -15.00374,-3.39098 -15.01042,-1.16164 -23.69233,-2.72135 -27.0544,-4.86035 -2.87733,-1.83058 -3.04848,-3.33308 -0.67804,-5.95239 2.72123,-3.00693 1.142,-4.8237 -6.27627,-7.22029 -13.58368,-4.38844 -35.37496,-15.96751 -35.37496,-18.79694 0,-0.49493 1.45284,-1.72659 3.22854,-2.73702 1.7757,-1.01042 3.23161,-2.66253 3.23536,-3.67135 0.004,-1.06208 -4.19261,-4.96917 -9.96887,-9.28124 -10.63761,-7.94114 -21.29945,-17.71041 -21.29945,-19.51634 0,-0.60279 2.06254,-1.68257 4.58343,-2.39953 2.52088,-0.71694 4.99444,-1.65701 5.49679,-2.08903 0.50236,-0.43202 -3.09249,-4.59662 -7.98854,-9.25466 -10.39622,-9.89084 -15.62053,-17.24645 -13.8039,-19.43534 0.65549,-0.78982 2.83094,-1.43604 4.83433,-1.43604 5.83909,0 4.87067,-3.67304 -3.43912,-13.04391 -8.64347,-9.74717 -12.730163,-16.35148 -11.844632,-19.14154 0.364973,-1.14993 2.776102,-2.86589 5.475412,-3.89677 6.01028,-2.29535 6.28581,-4.79855 1.26407,-11.48423 -4.56125,-6.07262 -8.303799,-12.55292 -8.303799,-14.3782 0,-1.88909 7.042239,-3.57878 20.683819,-4.96283 15.2428,-1.5465 18.22003,-2.95833 14.3659,-6.81247 -0.88973,-0.88972 -1.61768,-1.88202 -1.61768,-2.20511 0,-0.32308 7.15823,-0.72173 15.90718,-0.88587 l 15.90718,-0.29844 0.34665,-3.02173 c 0.67188,-5.85682 7.7296,-5.7786 26.69269,0.29582 11.44693,3.66678 13.69214,3.3507 11.43217,-1.6094 -0.69569,-1.52687 -1.26489,-3.67198 -1.26489,-4.7669 0,-4.71995 5.58805,-3.5676 24.07236,4.96414 7.01174,3.23638 13.56334,5.73003 14.55911,5.54145 1.23318,-0.23354 1.91725,-1.6296 2.14523,-4.3781 0.22924,-2.76366 0.85643,-4.03523 1.99034,-4.03523 0.9106,0 8.28218,2.97204 16.38131,6.60453 8.09912,3.6325 16.61615,6.86034 18.92676,7.17299 4.06676,0.55028 4.18361,0.47704 3.65452,-2.29072 -0.30061,-1.57255 -0.19628,-2.85917 0.23185,-2.85917 2.07595,0 10.25571,6.68167 20.59999,16.82721 11.95896,11.7292 14.57724,13.04919 17.42769,8.78604 l 1.62242,-2.42652 3.84235,4.0584 c 5.41166,5.71595 15.23031,20.75735 19.05241,29.18682 6.55986,14.46744 8.97333,24.8463 9.07776,39.03777 0.0876,11.89806 -0.13231,13.4108 -2.66463,18.3337 -3.20596,6.23243 -8.46971,10.21865 -13.49362,10.21865 -4.04159,0 -8.85847,-3.37242 -23.3583,-16.3537 -31.69828,-28.37855 -69.68841,-49.77399 -115.68523,-65.15207 -20.55266,-6.87136 -31.04835,-9.50926 -30.45865,-7.65522 0.22166,0.6969 7.16553,4.81553 15.43083,9.15252 36.6058,19.20788 75.90783,43.73187 96.45101,60.18424 22.26448,17.83092 35.58894,34.5115 35.58894,44.55296 0,14.44309 -19.33439,29.91656 -45.29502,36.24998 -3.85546,0.94059 -13.84676,1.98587 -22.20288,2.32284 -14.71455,0.5934 -15.26344,0.53701 -17.43178,-1.79043 z"
       id="path15775"
       transform="scale(0.26458333)" /><path
       d="m 168.78405,39.169374 c -8.74379,-0.100858 -8.74379,-0.100858 -9.08554,-0.999721 -1.00306,-2.638262 -0.79256,-3.02248 6.36336,-11.614436 6.16862,-7.406514 7.43482,-8.82904 7.77682,-8.736926 0.17149,0.04617 0.22113,-0.152285 0.1103,-0.441046 -0.16753,-0.436598 -1.22182,-0.525021 -6.25986,-0.525021 -7.56273,0 -7.71436,-0.06723 -7.39486,-3.278847 0.32743,-3.291482 -0.51392,-3.072203 11.78777,-3.072203 12.39145,0 11.97322,-0.10869 11.97322,3.111356 0,1.889207 0.0973,1.749223 -7.81083,11.2461 -3.42443,4.112434 -6.13755,7.565819 -6.02919,7.674185 0.10838,0.108365 3.15556,0.197035 6.77155,0.197035 7.67881,0 7.42132,-0.116293 7.42132,3.351943 0,3.246857 -0.14658,3.370919 -3.86357,3.270187 -1.6592,-0.04497 -6.95144,-0.127141 -11.76053,-0.182606 z"
       style="fill:#000000;fill-opacity:1;stroke:#ffffff;stroke-width:2;stroke-dasharray:none;stroke-opacity:1"
       id="path1" /><path
       style="fill:#c63d3d;fill-opacity:1;fill-rule:nonzero;stroke:#000000;stroke-width:5.7637796;stroke-dasharray:none;stroke-opacity:1"
       d="m 452.21072,376.15954 c -23.89118,-0.87005 -152.03051,-1.17564 -159.78306,-0.38106 -4.39382,0.45034 -6.07601,0.34398 -7.16607,-0.4531 -1.35744,-0.99258 -1.23469,-1.40443 2.60918,-8.75476 4.95115,-9.46767 14.37125,-22.16274 20.76993,-27.99076 17.80836,-16.22012 39.02311,-23.5805 70.7435,-24.54421 21.82885,-0.66319 36.34637,2.01571 52.42194,9.67335 20.03495,9.54369 33.90321,23.45532 45.80906,45.95229 l 3.93483,7.43517 -5.13739,-0.12132 c -2.82556,-0.0667 -13.71643,-0.43374 -24.20192,-0.8156 z"
       id="path15776"
       transform="scale(0.26458333)" /><path
       id="path15778"
       style="fill:#c63d3d;fill-opacity:1;fill-rule:nonzero;stroke:#000000;stroke-width:5.7637796;stroke-dasharray:none;stroke-opacity:1"
       d="M 527.73048 338.57618 C 517.15347 338.00115 506.64015 339.22628 496.61719 342.32032 C 489.62131 344.47992 486.90821 346.09084 486.90821 348.08594 C 486.90821 350.35015 494.46551 359.85408 503.44923 368.88868 C 515.26085 380.76721 514.56963 380.41437 531.36329 383.1836 C 546.89098 385.74408 556.63913 388.05656 567.36134 391.72461 C 587.20877 398.51439 602.4757 407.39603 617.35938 420.81251 C 620.8975 424.00185 623.9174 426.24306 624.07227 425.79297 C 624.83313 423.58175 618.76299 405.86251 614.01368 396.43165 C 606.59252 381.69519 591.62108 364.36797 579.17969 356.11524 C 563.16403 345.4916 545.35882 339.53455 527.73048 338.57618 z M 246.31446 338.58789 C 233.57732 338.58939 224.44176 338.94316 220.76758 339.57618 C 208.22822 341.73659 189.36748 349.63028 178.82617 357.12891 C 161.56847 369.40529 144.98383 391.64107 138.38672 411.34961 C 135.61104 419.64183 134.59629 430.25736 136.06445 435.64649 L 136.95313 438.90821 L 145.89063 430.48633 C 150.80622 425.85388 157.52275 420.04706 160.81446 417.58204 C 179.27802 403.75552 204.0138 392.74141 231.0625 386.30469 C 245.77874 382.8027 246.50119 382.55879 249.25977 380.13672 C 252.37571 377.40089 267.21965 356.7119 270.38868 350.6875 C 273.53228 344.7114 273.2403 342.13578 269.19141 340.11133 C 266.37531 338.70329 264.6191 338.58589 246.31446 338.58789 z "
       transform="scale(0.26458333)" /><path
       style="fill:#c63d3d;fill-opacity:1;fill-rule:nonzero;stroke:#000000;stroke-width:5.7637796;stroke-dasharray:none;stroke-opacity:1"
       d="M 93.814074,610.3586 C 87.837893,605.11144 78.521531,588.53732 75.217146,577.27405 70.023363,559.5706 69.961508,537.46456 75.05498,519.31787 c 6.880625,-24.51383 22.844282,-43.5112 43.67568,-51.97576 2.47614,-1.00615 4.82817,-1.62782 5.22673,-1.38149 1.11455,0.68883 0.88551,3.10539 -1.14676,12.09941 -2.70939,11.99067 -3.74601,24.67573 -3.21578,39.35139 0.49733,13.76491 1.6368,22.40945 4.75826,36.09819 2.04093,8.95022 2.04192,8.96986 0.72377,14.45697 -1.6496,6.86688 -7.49987,23.18209 -10.31096,28.75513 -2.77733,5.50613 -7.54951,11.80106 -10.71918,14.13957 -3.55111,2.61993 -6.861426,2.45731 -10.232666,-0.50268 z"
       id="path15779"
       transform="scale(0.26458333)" /><path
       style="fill:#c63d3d;fill-opacity:1;fill-rule:nonzero;stroke:#000000;stroke-width:5.7637796;stroke-dasharray:none;stroke-opacity:1"
       d="m 207.12698,777.79889 c -19.04785,-4.13237 -37.27982,-15.1071 -53.58518,-32.25556 -15.10031,-15.88111 -25.46702,-34.76657 -31.11076,-56.67572 -3.22136,-12.50541 -4.12964,-19.48125 -4.10436,-31.52252 0.0312,-14.86881 2.00285,-24.39377 7.34009,-35.46003 3.09854,-6.42452 11.44519,-14.93538 17.55617,-17.90157 5.71746,-2.77517 6.53686,-2.51943 18.95356,5.91571 5.31313,3.60941 11.73448,7.60963 14.26966,8.88939 11.92254,6.01848 25.09832,9.87414 39.35168,11.51559 8.82388,1.01619 10.6421,1.81165 16.27089,7.11844 8.15149,7.68519 16.28997,19.28503 21.75896,31.01319 7.47918,16.03899 11.16932,32.64827 11.16932,50.27296 0,17.7556 -3.4979,31.46864 -10.81904,42.41468 -5.99491,8.96311 -13.08585,14.06497 -23.21578,16.70348 -5.45257,1.42021 -17.22343,1.40636 -23.83521,-0.028 z"
       id="path15780"
       transform="scale(0.26458333)" /><path
       style="fill:#c63d3d;fill-opacity:1;fill-rule:nonzero;stroke:#000000;stroke-width:5.7637796;stroke-dasharray:none;stroke-opacity:1"
       d="m 359.1758,737.73652 c -13.29373,-1.83257 -27.97314,-6.74892 -38.48909,-12.89056 -16.03286,-9.3637 -34.65268,-29.44284 -40.67455,-43.86243 -5.24221,-12.55267 -5.78484,-32.46367 -1.17665,-43.17571 2.17881,-5.06477 6.28636,-8.50075 17.14638,-14.343 16.0857,-8.65346 35.3623,-20.91022 54.04293,-34.36246 12.35476,-8.89686 19.03623,-12.52996 26.75744,-14.54951 12.68115,-3.31688 24.11278,0.4542 35.71518,11.78176 4.9324,4.81557 10.13275,12.62515 10.80964,16.23329 0.71981,3.8369 2.10336,4.82811 6.73917,4.82811 15.31442,0 32.32121,10.4762 39.02432,24.03903 12.78787,25.87448 -1.26532,64.90727 -31.55298,87.63853 -11.93827,8.95981 -24.42906,14.43935 -39.45015,17.30622 -8.96224,1.71051 -30.7992,2.47229 -38.89164,1.35673 z"
       id="path15781"
       transform="scale(0.26458333)" /><path
       style="fill:#c63d3d;fill-opacity:1;fill-rule:nonzero;stroke:#000000;stroke-width:5.7637796;stroke-dasharray:none;stroke-opacity:1"
       d="m 363.36999,858.26769 c -19.67789,-2.73644 -36.31118,-8.67497 -52.11477,-18.60635 -13.99816,-8.79681 -26.3815,-21.04732 -31.2197,-30.88481 -3.17541,-6.45656 -3.41517,-13.749 -0.62685,-19.06611 6.40113,-12.20645 29.54485,-25.53201 55.71105,-32.077 17.09818,-4.2768 23.61812,-4.96605 46.93352,-4.96154 18.79346,0.004 22.4946,0.20962 30.88454,1.71894 29.86637,5.37285 49.81028,15.57737 57.24488,29.28999 2.4732,4.56165 2.61544,5.22831 2.57589,12.07279 -0.0347,6.00552 -0.37785,8.04397 -2.00642,11.91896 -9.36946,22.29358 -39.7643,43.07167 -72.38482,49.48267 -7.48695,1.47143 -27.7778,2.11642 -34.99732,1.11246 z"
       id="path15782"
       transform="scale(0.26458333)" /><path
       style="fill:#c63d3d;fill-opacity:1;fill-rule:nonzero;stroke:#000000;stroke-width:5.7637796;stroke-dasharray:none;stroke-opacity:1"
       d="m 526.1811,784.00184 c -23.14528,-5.36279 -38.27638,-23.31237 -42.80636,-50.77991 -1.41212,-8.56241 -1.06067,-23.42683 0.79628,-33.67803 3.58844,-19.80987 14.29932,-40.31803 28.66412,-54.88331 9.87032,-10.00807 13.78657,-11.96447 25.82698,-12.90212 21.01708,-1.63672 40.99336,-6.89385 59.88792,-15.76064 9.86494,-4.62938 10.8663,-4.94271 14.44284,-4.51912 8.87798,1.05147 17.45941,8.09502 22.31221,18.31365 9.04937,19.05541 7.44451,52.47831 -3.88616,80.93342 -14.23952,35.76018 -43.58986,62.91281 -77.91488,72.08071 -7.73849,2.06688 -21.04838,2.64917 -27.32295,1.19535 z"
       id="path15783"
       transform="scale(0.26458333)" /><path
       style="fill:#c63d3d;fill-opacity:1;fill-rule:nonzero;stroke:#000000;stroke-width:5.7637796;stroke-dasharray:none;stroke-opacity:1"
       d="m 653.51969,615.90111 c -3.13211,-1.91007 -8.58515,-8.14562 -11.76455,-13.45275 -6.94799,-11.59775 -7.14975,-20.12151 -0.8477,-35.81169 7.62869,-18.99309 12.10115,-52.04218 10.01111,-73.97657 -0.47788,-5.01512 -1.6013,-12.30694 -2.49649,-16.20405 -0.89519,-3.8971 -1.41628,-7.29699 -1.15796,-7.5553 0.67034,-0.67035 11.62786,5.36363 16.3853,9.0229 31.46379,24.20095 40.08621,78.46466 18.40637,115.83728 -7.42965,12.80753 -18.60835,23.55539 -24.48966,23.54579 -0.9604,-0.002 -2.78129,-0.6341 -4.04642,-1.40561 z"
       id="path15784"
       transform="scale(0.26458333)" /></g></svg>
